<svg xmlns="http://www.w3.org/2000/svg"  viewBox="0 0 392.657 392.656" style="enable-background:new 0 0 392.657 392.656" xml:space="preserve"><path d="M266.182 62.711c15.014 21.124 21.545 46.847 18.255 73.22-.688 5.546 6.11 6.426 9.037 6.799 1.338.172 2.581.239 3.576.239 5.44 0 6.607-2.888 6.942-5.441 3.786-30.418-3.969-61.028-21.841-86.196-9.477-13.32-21.296-24.403-35.104-32.943A121.91 121.91 0 0 0 182.654 0c-30.342 0-59.412 11.15-81.855 31.375-1.042.928-3.031 1.062-4.035.306l-8.291-6.417c-3.768-2.897-7.994-2.744-10.433.019-1.023 1.176-2.161 3.347-1.683 6.923l3.414 26.564c.727 5.719 5.613 10.031 11.36 10.031l28.018-3.509c5.364-.65 6.809-3.911 7.181-5.279.373-1.377.775-4.905-3.48-8.157l-7.488-5.814-.191-1.262c18.656-16.247 42.62-25.197 67.473-25.197 19.115 0 37.82 5.336 54.076 15.415a102.159 102.159 0 0 1 29.462 27.713zM374.544 351.105V218.158c0-10.93-8.854-19.756-19.775-19.756H202.372v26.67h134.104a5.43 5.43 0 0 1 5.432 5.441v108.229a5.43 5.43 0 0 1-5.432 5.441H202.372v26.689H354.76c10.93.001 19.784-8.854 19.784-19.767z"/><path d="M37.877 392.656h132.948c10.911 0 19.765-8.855 19.765-19.775V119.283c0-10.92-8.864-19.775-19.765-19.775H37.877c-10.93 0-19.766 8.855-19.766 19.775v253.598c.011 10.92 8.837 19.775 19.766 19.775zm66.144-12.078c-6.885 0-12.45-5.566-12.45-12.441s5.565-12.449 12.45-12.449c6.866 0 12.441 5.574 12.441 12.449s-5.575 12.441-12.441 12.441zM44.792 137.566a5.43 5.43 0 0 1 5.441-5.432h108.229a5.43 5.43 0 0 1 5.441 5.432v195.246a5.435 5.435 0 0 1-5.441 5.432H50.232a5.436 5.436 0 0 1-5.441-5.432V137.566z"/></svg>